# xmcd CD database file
#
# Track frame offsets:
#	150
#	12955
#	30801
#	47407
#	63000
#	75549
#	85526
#	109613
#	124455
#	148501
#
# Disc length: 2151 seconds
#
# Revision: 0
# Processed by: cddbd v1.5.2PL0 Copyright (c) Steve Scherf et al.
# Submitted via: CDex 1.51
#
DISCID=6908650a
DTITLE=Dick Garcia - A Message From Garcia
DYEAR=1956
DGENRE=Jazz
TTITLE0=Have You Meet Miss Jones? (Feat. Tony Scott)
TTITLE1=If I'm Lucky
TTITLE2=Kimona My House (Feat. Bill Evans)
TTITLE3=I Don't Want To Set The World On Fire (Feat. Tony Scott)
TTITLE4=The Deacon
TTITLE5=Stompin' At The Savoy
TTITLE6=Like Someone In Love (Feat. Bill Evans)
TTITLE7=Potatoes (Feat. Tony Scott)
TTITLE8=It Could happen To You
TTITLE9=Ev'ry Night About This Time (Feat. Bill Evans)
EXTD=YEAR: 1956
EXTT0=
EXTT1=
EXTT2=
EXTT3=
EXTT4=
EXTT5=
EXTT6=
EXTT7=
EXTT8=
EXTT9=
PLAYORDER=
